<?xml version="1.0" encoding="UTF-8" standalone="no"?>
<!DOCTYPE svg PUBLIC "-//W3C//DTD SVG 1.1//EN" "http://www.w3.org/Graphics/SVG/1.1/DTD/svg11.dtd">
<svg xmlns:svg="http://www.w3.org/2000/svg" xmlns="http://www.w3.org/2000/svg" version="1.1" width="940px" height="940px" viewBox="-20, -20, 940, 940">
	<defs/>
	<rect x="-20" y="-20" width="940" height="940" style="stroke:none; fill:#ffffff;"/> <!-- background -->

	<!-- horizontal, inner lines, for better contour as filled rects -->
	<rect x="0" y="95" width="900" height="10" style="stroke:none; fill:#000000;"/>
	<rect x="0" y="195" width="900" height="10" style="stroke:none; fill:#000000;"/>
	<rect x="0" y="290" width="900" height="20" style="stroke:none; fill:#000000;"/>
	<rect x="0" y="395" width="900" height="10" style="stroke:none; fill:#000000;"/>
	<rect x="0" y="495" width="900" height="10" style="stroke:none; fill:#000000;"/>
	<rect x="0" y="590" width="900" height="20" style="stroke:none; fill:#000000;"/>
	<rect x="0" y="695" width="900" height="10" style="stroke:none; fill:#000000;"/>
	<rect x="0" y="795" width="900" height="10" style="stroke:none; fill:#000000;"/>

	<!-- vertical, inner lines -->
	<rect x="95" y="0" width="10" height="900" style="stroke:none; fill:#000000;"/>
	<rect x="195" y="0" width="10" height="900" style="stroke:none; fill:#000000;"/>
	<rect x="290" y="0" width="20" height="900" style="stroke:none; fill:#000000;"/>
	<rect x="395" y="0" width="10" height="900" style="stroke:none; fill:#000000;"/>
	<rect x="495" y="0" width="10" height="900" style="stroke:none; fill:#000000;"/>
	<rect x="590" y="0" width="20" height="900" style="stroke:none; fill:#000000;"/>
	<rect x="695" y="0" width="10" height="900" style="stroke:none; fill:#000000;"/>
	<rect x="795" y="0" width="10" height="900" style="stroke:none; fill:#000000;"/>
	<!-- border, created as filled contour  -->
	<path style="stroke:none; fill:#000000;" d="M -10,-10 L 910,-10 L 910,910 L -10,910 L -10,-10 L 10,10 L 10,890 L 890,890 L 890,10 L 10,10 z"/>
	<text transform="translate(10,0)" style="font-family:Arial, sans-serif; font-size:80px; font-weight:bold; text-anchor:middle;">
		<!-- insert_numbers_here -->
		<tspan x="940" y="940">.</tspan>
	</text>
</svg>
